<svg id="レイヤー_1" data-name="レイヤー 1" xmlns="http://www.w3.org/2000/svg" viewBox="0 0 411.76 103.8"><defs><style>.cls-1{fill:#3b3b3b;}.cls-2{fill:#0f8775;}</style></defs><path class="cls-1" d="M26.55,50.14V58h.22c.44-.74,1-1.6,1.76-2.59a14.46,14.46,0,0,1,2.92-2.86,17.54,17.54,0,0,1,4.4-2.36,17.36,17.36,0,0,1,6.21-1A21.51,21.51,0,0,1,48.5,50a14.79,14.79,0,0,1,4.29,2.09,12,12,0,0,1,2.75,2.81c.69,1,1.33,2.05,1.92,3.08a16.42,16.42,0,0,1,3.69-4.68,17.43,17.43,0,0,1,4.12-2.64,15.08,15.08,0,0,1,4-1.21,22.37,22.37,0,0,1,3.08-.27q6.27,0,9.68,1.87a12.62,12.62,0,0,1,5,4.45,13,13,0,0,1,1.82,5.45c.18,1.9.27,3.52.27,4.84v30h7.26v1.54H69.12V95.79h6.49V61.69q0-4.62-1.7-7.1t-5.67-2.47a8.74,8.74,0,0,0-3,.66,12.54,12.54,0,0,0-3.41,2,11.06,11.06,0,0,0-2.8,3.46,10.66,10.66,0,0,0-1.16,5.12V95.79h6.49v1.54H37.88V95.79h6.6v-35c0-3.23-.7-5.48-2.09-6.77a6.67,6.67,0,0,0-4.62-1.92A9.89,9.89,0,0,0,30.07,56a17,17,0,0,0-1.54,2.25,10.46,10.46,0,0,0-1,2.64,20.44,20.44,0,0,0-.55,3.41c-.11,1.28-.17,2.84-.17,4.68V95.79h6.49v1.54H6.09V95.79h7.26V51.68H6.09V50.14Z"/><path class="cls-1" d="M94.69,18V70.49h.55L115.7,51.68h-8V50.14h17.27v1.54h-7L105.58,63.34l25.19,32.45h4.29v1.54H105.91V95.79h7.92L95.24,72h-.55V95.79h6.82v1.54H74V95.79h7.26V19.56H74V18Z"/><path class="cls-1" d="M361.88,96.14h8.86V50h-8.86V48.42H380.4V60h.23a22.89,22.89,0,0,1,1.49-3.91,17.3,17.3,0,0,1,2.88-4.2,16.23,16.23,0,0,1,4.43-3.39,13.13,13.13,0,0,1,6.26-1.38,11.2,11.2,0,0,1,4.6.87,9.77,9.77,0,0,1,3.22,2.18,7.91,7.91,0,0,1,1.84,3,10.68,10.68,0,0,1,.58,3.45c0,2.53-.58,4.21-1.73,5.06a6.63,6.63,0,0,1-4,1.26c-3.38,0-5.06-1.07-5.06-3.22a4.87,4.87,0,0,1,.23-1.67,13.41,13.41,0,0,1,.52-1.26,10,10,0,0,0,.51-1.44,8.5,8.5,0,0,0,.23-2.3q0-3.68-4-3.68a7.12,7.12,0,0,0-3.91,1.38,14.23,14.23,0,0,0-3.85,4,25,25,0,0,0-3,6.38,27.71,27.71,0,0,0-1.21,8.57V96.14h10v1.61H361.88Z"/><path class="cls-1" d="M340,69.2c0,.73,0,1.48,0,2.25s-.06,1.75-.06,2.92a69.63,69.63,0,0,0,.44,7.59,23,23,0,0,0,1.92,7.15,13.25,13.25,0,0,0,4.41,5.28,13,13,0,0,0,7.75,2.09,19.3,19.3,0,0,0,8-1.43,14.49,14.49,0,0,0,5-3.47,15,15,0,0,0,2.7-4.12c.59-1.39,1-2.53,1.32-3.41l1.65.33a31.54,31.54,0,0,1-1.26,3.46,16.09,16.09,0,0,1-3,4.51,18,18,0,0,1-5.5,4,20.34,20.34,0,0,1-9,1.71,28.76,28.76,0,0,1-10.18-1.76,23.22,23.22,0,0,1-8.08-5.06,22.92,22.92,0,0,1-5.28-7.87,26.51,26.51,0,0,1-1.87-10.17,23.91,23.91,0,0,1,1.93-9.41A26.4,26.4,0,0,1,344,50a21.84,21.84,0,0,1,16.28-1,19.25,19.25,0,0,1,6.54,3.57,19.57,19.57,0,0,1,5.06,6.55,22.47,22.47,0,0,1,2,10.12Zm22.66-1.54a19.86,19.86,0,0,0,.22-2.86V62.05a22,22,0,0,0-.72-6.16,10,10,0,0,0-2-3.85,7.13,7.13,0,0,0-3.08-2,12.41,12.41,0,0,0-3.91-.6,11.61,11.61,0,0,0-6.16,1.48,10.93,10.93,0,0,0-3.85,4,20.93,20.93,0,0,0-2.15,5.83,47.09,47.09,0,0,0-.93,6.93Z"/><path class="cls-1" d="M281,95.8h8.47V51.69H281V50.15h17.71V61.92h.22c.44-1,1.08-2.16,1.93-3.63A19.23,19.23,0,0,1,304.33,54a18.89,18.89,0,0,1,13.53-5.06q7.26,0,11.83,3.52t4.56,11.22V95.8h8.47v1.54h-26.4V95.8h8.47V60.27a11.58,11.58,0,0,0-2-7q-2-2.74-6.33-2.75A15.34,15.34,0,0,0,309.72,52a17.65,17.65,0,0,0-5.61,4.29,20.36,20.36,0,0,0-3.79,6.49,23.38,23.38,0,0,0-1.38,8.14V95.8h8.47v1.54H281Z"/><path class="cls-1" d="M221.45,50.29h24.82v1.44h-8.55l11.54,32.14L260,58.43l-2.57-6.7h-4.33V50.29h20.5v1.44h-6.9l11.95,31.94,12.87-31.94h-9.68V50.29H298.6v1.44h-5.46L274.7,97.88l-14-37.39L245,97.88,228.45,51.73h-7Z"/><path class="cls-1" d="M196.05,73.71a20.21,20.21,0,0,1,2.21-9.37A26.08,26.08,0,0,1,211.65,52a21,21,0,0,1,16.79,0,26,26,0,0,1,13.39,12.36,20.22,20.22,0,0,1,2.22,9.37A20.79,20.79,0,0,1,242,82.83,25.58,25.58,0,0,1,228.9,95.34a22,22,0,0,1-17.71,0,25.52,25.52,0,0,1-13.08-12.51A20.65,20.65,0,0,1,196.05,73.71Zm10.3,0a47.46,47.46,0,0,0,1.13,11.64,17.88,17.88,0,0,0,3,6.64,8.57,8.57,0,0,0,4.32,3,19.54,19.54,0,0,0,10.51,0,8.59,8.59,0,0,0,4.33-3,17.89,17.89,0,0,0,3-6.64,47.39,47.39,0,0,0,1.14-11.64,54.48,54.48,0,0,0-.83-10.35,19.49,19.49,0,0,0-2.52-6.8,9.81,9.81,0,0,0-4.28-3.76,16.89,16.89,0,0,0-12.15,0,9.73,9.73,0,0,0-4.27,3.76,19.29,19.29,0,0,0-2.53,6.8A54.58,54.58,0,0,0,206.35,73.71Z"/><path class="cls-2" d="M110,6.71V4.89h12q6.63,0,13.26-.2t13.26-.19a103.79,103.79,0,0,1,12.35.78,70.79,70.79,0,0,1,12.87,2.79,58,58,0,0,1,12.09,5.4A39.29,39.29,0,0,1,202.94,34.4a49.07,49.07,0,0,1,2.6,16.77,48.74,48.74,0,0,1-2.6,16.64A40.79,40.79,0,0,1,196,80.16a40.11,40.11,0,0,1-10,8.58,57.72,57.72,0,0,1-11.63,5.39,64,64,0,0,1-12,2.8,84.54,84.54,0,0,1-11,.78q-7.41,0-14.75-.13T122,97.45H110V95.63h12V6.71ZM147.69,96a45.29,45.29,0,0,0,14.43-2,30.55,30.55,0,0,0,10.08-5.46,27.38,27.38,0,0,0,6.5-7.86,40.39,40.39,0,0,0,3.64-9.3A59,59,0,0,0,184,61.63q.39-4.87.39-9.16a126.56,126.56,0,0,0-1.3-19,37.62,37.62,0,0,0-5.13-14.56,24.93,24.93,0,0,0-10.79-9.29q-7-3.25-18.27-3.25-2.6,0-4.68.06a21.14,21.14,0,0,0-3.38.33V95.63A67.36,67.36,0,0,0,147.69,96Z"/></svg>