<?xml version="1.0" encoding="utf-8"?>
<!-- Generator: Adobe Illustrator 23.0.3, SVG Export Plug-In . SVG Version: 6.00 Build 0)  -->
<svg version="1.1" id="レイヤー_1" xmlns="http://www.w3.org/2000/svg" xmlns:xlink="http://www.w3.org/1999/xlink" x="0px"
	 y="0px" viewBox="0 0 480 128" style="enable-background:new 0 0 480 128;" xml:space="preserve">
<style type="text/css">
	.st0{clip-path:url(#SVGID_2_);}
	.st1{fill:#2D2E2E;}
</style>
<g>
	<defs>
		<rect id="SVGID_1_" x="-7" y="21.6" width="493.2" height="80.7"/>
	</defs>
	<clipPath id="SVGID_2_">
		<use xlink:href="#SVGID_1_"  style="overflow:visible;"/>
	</clipPath>
	<g id="カスタムサイズ_1" class="st0">
		<path id="パス_1" class="st1" d="M30.8,41.9l-9.4,24.8h18.7L30.8,41.9z M3.1,91.5h7.5l23-61h2l23.2,61h7.6v1.2H40.1v-1.2h9.5
			l-8.9-23.7H20.9l-8.9,23.7h9.5v1.2H3.1V91.5z M68.7,91.5h6.6V57.4h-6.6v-1.2h6.6v-4.5c0-1.7,0.1-3.4,0.3-5.2
			c0.2-1.3,0.4-2.6,0.8-3.8c0.3-1,0.7-2,1.2-2.9c0.4-0.8,1-1.6,1.5-2.3c1.5-1.9,3.4-3.6,5.5-4.9c2.1-1.4,4.6-2.1,7.1-2.1
			c1.6,0,3.3,0.2,4.8,0.8c1.2,0.5,2.3,1.1,3.3,2c0.8,0.7,1.4,1.6,1.9,2.6c0.4,0.8,0.6,1.6,0.6,2.5c0,1.1-0.3,2.1-0.9,3
			c-0.7,1-1.9,1.5-3.2,1.4c-0.9,0-1.7-0.2-2.5-0.5c-0.9-0.3-1.5-1.2-1.4-2.2c0-0.9,0.3-1.8,0.8-2.6c0.5-0.8,0.8-1.7,0.8-2.6
			c0.1-1.1-0.5-2.1-1.5-2.5c-1-0.4-2.1-0.6-3.2-0.6c-2.4,0-4.6,1.2-6,3.1c-1.7,2-2.6,5.2-2.6,9.5v11.8h10.6v1.2H82.6v34.2h7.8v1.2
			H68.7L68.7,91.5z M96.1,56.2h6.6v-11c0.5,0.2,0.9,0.3,1.3,0.4c0.7,0.1,1.4,0.2,2,0.2c0.7,0,1.5-0.1,2.2-0.3c0.7-0.2,1.3-0.5,1.8-1
			v11.7h12.1v1.2H110v27.9c0,1.3,0.1,2.6,0.5,3.9c0.2,0.8,0.7,1.6,1.2,2.3c0.4,0.5,1,0.9,1.7,1.1c0.6,0.2,1.2,0.3,1.7,0.3
			c1.9,0.1,3.6-0.7,4.8-2.2c1.2-1.4,2-3.1,2.3-5l1.2,0.4c-0.2,0.8-0.5,1.7-0.8,2.5c-0.4,1-0.9,1.8-1.6,2.6c-0.8,0.9-1.7,1.6-2.8,2
			c-1.3,0.6-2.8,0.9-4.3,0.8c-4.3,0-7.2-0.8-8.9-2.5c-1.8-1.9-2.7-4.4-2.5-7V57.4h-6.6V56.2z M153,70.4c0.1-0.7,0.2-1.5,0.2-2.2V66
			c0-1.6-0.1-3.2-0.6-4.8c-0.3-1.1-0.8-2.1-1.5-3c-0.6-0.7-1.5-1.3-2.4-1.6c-1-0.3-2-0.5-3-0.5c-1.7-0.1-3.3,0.3-4.8,1.2
			c-1.2,0.8-2.3,1.8-3,3.1c-0.8,1.4-1.3,2.9-1.7,4.5c-0.4,1.8-0.6,3.6-0.7,5.4H153z M135.4,71.6c0,0.6,0,1.2,0,1.7
			c0,0.6,0,1.3,0,2.3c0,2,0.1,3.9,0.3,5.9c0.2,1.9,0.7,3.8,1.5,5.5c0.8,1.6,1.9,3,3.4,4.1c1.8,1.2,3.9,1.7,6,1.6
			c2.1,0.1,4.2-0.3,6.2-1.1c1.4-0.6,2.8-1.5,3.8-2.7c0.9-0.9,1.6-2,2.1-3.2c0.5-1.1,0.8-2,1-2.6l1.3,0.3c-0.3,0.9-0.6,1.8-1,2.7
			c-0.6,1.3-1.3,2.5-2.3,3.5c-1.2,1.3-2.7,2.3-4.3,3.1c-2.2,1-4.6,1.4-6.9,1.3c-2.7,0-5.4-0.4-7.9-1.4c-2.3-0.9-4.5-2.2-6.3-3.9
			c-1.8-1.7-3.2-3.8-4.1-6.1c-1-2.5-1.5-5.2-1.4-7.9c0-2.5,0.5-5,1.5-7.3c1-2.3,2.4-4.4,4.1-6.3c1.7-1.8,3.8-3.3,6.1-4.4
			c2.3-1.1,4.9-1.7,7.5-1.7c1.7,0,3.5,0.3,5.1,0.9c1.9,0.6,3.6,1.5,5.1,2.8c1.7,1.4,3,3.1,3.9,5.1c1.1,2.5,1.7,5.1,1.6,7.8
			L135.4,71.6z M167.9,91.5h6.6V57.4h-6.6v-1.2h13.7v8.6h0.2c0.3-1,0.7-2,1.1-2.9c0.6-1.1,1.3-2.2,2.1-3.1c0.9-1,2.1-1.9,3.3-2.5
			c1.4-0.7,3-1.1,4.6-1c1.2,0,2.3,0.2,3.4,0.6c0.9,0.4,1.7,0.9,2.4,1.6c0.6,0.6,1.1,1.4,1.4,2.3c0.3,0.8,0.4,1.7,0.4,2.6
			c0,1.9-0.4,3.1-1.3,3.7c-0.9,0.6-1.9,1-3,0.9c-2.5,0-3.7-0.8-3.7-2.4c0-0.4,0-0.8,0.2-1.2c0.1-0.3,0.2-0.6,0.4-0.9
			c0.2-0.3,0.3-0.7,0.4-1.1c0.1-0.6,0.2-1.1,0.2-1.7c0-1.8-1-2.7-3-2.7c-1,0-2.1,0.4-2.9,1c-1.1,0.8-2.1,1.8-2.9,3
			c-1,1.5-1.7,3.1-2.2,4.7c-0.6,2.1-0.9,4.2-0.9,6.3v19.5h7.4v1.2h-21.3V91.5z M215.4,32.1h25.6v1.2h-8.9l17.5,49.4h0.2l11.3-31.4
			l-6.5-18h-7.2v-1.2h25.6v1.2h-9.3l17.5,49.4h0.2l17.9-49.4h-9.1v-1.2h18.2v1.2h-7.7L278.9,94h-2.1l-14.7-40.9h-0.2L247.1,94h-2.3
			l-21.7-60.7h-7.7L215.4,32.1z M311.6,74.5c-0.1,3.2,0.2,6.5,0.9,9.6c0.4,2,1.3,3.9,2.5,5.5c0.9,1.2,2.2,2.1,3.6,2.5
			c1.4,0.4,2.9,0.6,4.3,0.6c1.5,0,2.9-0.2,4.3-0.6c1.4-0.4,2.7-1.3,3.6-2.5c1.2-1.6,2-3.5,2.5-5.5c0.7-3.2,1-6.4,0.9-9.6
			c0-2.9-0.2-5.7-0.7-8.6c-0.3-2-1-3.9-2.1-5.6c-0.8-1.4-2.1-2.4-3.5-3.1c-1.6-0.7-3.3-1-5-0.9c-1.7,0-3.4,0.3-5,0.9
			c-1.5,0.7-2.7,1.7-3.5,3.1c-1,1.7-1.8,3.6-2.1,5.6C311.8,68.7,311.5,71.6,311.6,74.5L311.6,74.5z M303.1,74.5
			c0-2.7,0.6-5.4,1.8-7.8c1.2-2.3,2.8-4.4,4.7-6.2c1.9-1.7,4-3.1,6.4-4c2.2-0.9,4.6-1.4,6.9-1.4c2.4,0,4.7,0.5,6.9,1.4
			c2.4,1,4.5,2.3,6.4,4c1.9,1.8,3.5,3.9,4.7,6.2c1.2,2.4,1.9,5.1,1.8,7.8c0,2.6-0.6,5.2-1.7,7.5c-1.1,2.3-2.6,4.4-4.5,6.2
			c-1.8,1.8-4,3.2-6.3,4.2c-2.3,1-4.8,1.5-7.3,1.5c-2.5,0-5-0.5-7.3-1.5c-2.3-1-4.5-2.4-6.3-4.2c-1.9-1.8-3.4-3.9-4.5-6.2
			C303.6,79.7,303.1,77.1,303.1,74.5L303.1,74.5z M348.9,91.5h6.6V57.4h-6.6v-1.2h13.7v8.6h0.2c0.3-1,0.7-2,1.1-2.9
			c0.6-1.1,1.3-2.2,2.1-3.1c0.9-1,2.1-1.9,3.3-2.5c1.4-0.7,3-1.1,4.6-1c1.2,0,2.3,0.2,3.4,0.6c0.9,0.4,1.7,0.9,2.4,1.6
			c0.6,0.6,1.1,1.4,1.4,2.3c0.3,0.8,0.4,1.7,0.4,2.6c0,1.9-0.4,3.1-1.3,3.7c-0.9,0.6-1.9,1-3,0.9c-2.5,0-3.7-0.8-3.7-2.4
			c0-0.4,0-0.8,0.2-1.2c0.1-0.3,0.2-0.6,0.4-0.9c0.2-0.3,0.3-0.7,0.4-1.1c0.1-0.6,0.2-1.1,0.2-1.7c0-1.8-1-2.7-3-2.7
			c-1,0-2.1,0.4-2.9,1c-1.1,0.8-2.1,1.8-2.9,3c-1,1.5-1.7,3.1-2.2,4.7c-0.6,2.1-0.9,4.2-0.9,6.3v19.5h7.4v1.2h-21.3L348.9,91.5z
			 M383.6,91.5h6.6v-59h-6.6v-1.2h13.9V72h0.9l17-14.6h-6.1v-1.2h13.2v1.2h-5.1l-13.3,11.4L423,91.5h3.7v1.2h-19.2v-1.2h6
			l-15.1-18.3h-0.9v18.3h4.7v1.2h-18.6L383.6,91.5z M431.8,80.8h0.9c0.4,1.4,0.9,2.8,1.5,4.1c0.6,1.4,1.5,2.7,2.5,3.8
			c1.1,1.2,2.4,2.2,3.9,2.9c1.7,0.8,3.6,1.2,5.5,1.1c1.8,0,3.5-0.6,4.9-1.7c1.4-1.1,2.1-2.9,2.1-5.4c0-2.2-0.6-3.7-1.7-4.6
			c-1.2-0.9-2.5-1.6-3.9-2.1l-6.6-2.3c-0.9-0.3-1.8-0.6-2.8-1.1c-1-0.4-2-1-2.8-1.8c-0.9-0.8-1.6-1.8-2.1-2.9
			c-0.6-1.5-0.9-3-0.8-4.6c0-1.5,0.3-3,0.9-4.4c0.6-1.3,1.5-2.6,2.6-3.6c1.1-1,2.4-1.9,3.9-2.4c1.6-0.6,3.2-0.9,4.9-0.9
			c1,0,2,0.1,3,0.3c0.8,0.2,1.4,0.4,2,0.6c0.6,0.2,1.1,0.4,1.5,0.6c0.5,0.2,1.1,0.3,1.6,0.3c0.5,0,1.1-0.2,1.4-0.7h0.9v9.7h-0.9
			c-0.4-1.2-0.9-2.4-1.4-3.6c-0.5-1.1-1.1-2.2-1.8-3.1c-0.7-0.9-1.6-1.6-2.6-2.1c-1.2-0.5-2.4-0.8-3.7-0.8c-2.3-0.1-4.5,0.5-6.3,1.8
			c-1.5,1.2-2.3,3-2.3,4.9c-0.1,1.6,0.6,3.2,1.9,4.1c1.7,1.2,3.7,2,5.7,2.6l6.2,2c2.4,0.8,4.7,2,6.6,3.7c1.7,1.6,2.7,3.9,2.6,6.3
			c0,1.5-0.3,3.1-0.9,4.5c-0.6,1.5-1.5,2.8-2.6,3.9c-1.2,1.2-2.7,2.1-4.3,2.7c-1.8,0.7-3.8,1.1-5.7,1c-1.2,0-2.3-0.1-3.4-0.4
			c-1.1-0.3-2-0.5-2.9-0.8c-0.9-0.3-1.7-0.6-2.4-0.8c-0.7-0.2-1.3-0.4-2-0.4c-0.5,0-1,0.1-1.4,0.4c-0.3,0.2-0.5,0.5-0.7,0.8h-0.9
			L431.8,80.8z M467.6,89.1c0-1.2,0.5-2.4,1.3-3.2c0.8-0.9,2-1.3,3.2-1.3c1.2,0,2.4,0.5,3.2,1.3c0.9,0.8,1.3,2,1.3,3.2
			c0,1.2-0.5,2.4-1.3,3.2c-0.8,0.9-2,1.3-3.2,1.3c-1.2,0-2.4-0.5-3.2-1.3C468.1,91.5,467.6,90.3,467.6,89.1L467.6,89.1z"/>
	</g>
</g>
</svg>
