<?xml version="1.0" encoding="utf-8"?>
<!-- Generator: Adobe Illustrator 23.0.3, SVG Export Plug-In . SVG Version: 6.00 Build 0)  -->
<svg version="1.1" id="レイヤー_1" xmlns="http://www.w3.org/2000/svg" xmlns:xlink="http://www.w3.org/1999/xlink" x="0px"
	 y="0px" viewBox="0 0 128 128" style="enable-background:new 0 0 128 128;" xml:space="preserve">
<style type="text/css">
	.st0{fill:#2E2E2E;}
</style>
<title>behance</title>
<path class="st0" d="M37.6,24.6c3.7,0,7.1,0.3,10.1,1c3,0.6,5.6,1.7,7.8,3.2c2.2,1.5,3.8,3.4,5.1,5.9c1.2,2.4,1.8,5.5,1.8,9.1
	c0,3.9-0.9,7.2-2.7,9.8c-1.8,2.6-4.4,4.7-7.9,6.4c4.8,1.4,8.3,3.8,10.6,7.2c2.4,3.4,3.5,7.6,3.5,12.4c0,3.9-0.8,7.3-2.3,10.1
	c-1.5,2.9-3.6,5.2-6.1,7c-2.6,1.8-5.5,3.1-8.8,4c-3.3,0.9-6.6,1.3-10.1,1.3H1.1V24.6C1.1,24.6,37.6,24.6,37.6,24.6z M35.3,55.8
	c3,0,5.5-0.7,7.5-2.2c2-1.4,2.9-3.8,2.9-7c0-1.8-0.3-3.3-1-4.4c-0.7-1.2-1.5-2.1-2.6-2.7c-1.1-0.7-2.3-1.1-3.8-1.4
	c-1.4-0.3-2.9-0.4-4.4-0.4H18.1v18.1C18.1,55.8,35.3,55.8,35.3,55.8z M36.3,88.8c1.7,0,3.3-0.1,4.8-0.5c1.5-0.3,2.9-0.9,4-1.6
	c1.1-0.8,2.1-1.8,2.8-3.1c0.7-1.3,1-3,1-5c0-4-1.1-6.8-3.4-8.6c-2.2-1.7-5.2-2.5-8.9-2.5H18.1v21.3L36.3,88.8L36.3,88.8z"/>
<path class="st0" d="M90.2,88.5c2.3,2.3,5.6,3.4,10,3.4c3.1,0,5.8-0.8,8-2.4c2.2-1.6,3.6-3.2,4.1-5h13.6c-2.2,6.8-5.5,11.6-10,14.5
	c-4.4,2.9-9.9,4.4-16.2,4.4c-4.4,0-8.4-0.7-11.9-2.1c-3.6-1.4-6.5-3.4-9-6c-2.4-2.6-4.3-5.7-5.7-9.3c-1.3-3.6-2-7.6-2-11.9
	c0-4.2,0.7-8.1,2.1-11.7c1.4-3.6,3.3-6.8,5.9-9.4c2.6-2.6,5.6-4.7,9.1-6.2c3.5-1.5,7.4-2.3,11.7-2.3c4.7,0,8.9,0.9,12.5,2.8
	c3.5,1.8,6.5,4.3,8.7,7.4c2.3,3.1,3.9,6.7,4.9,10.6c1,4,1.4,8.1,1.1,12.5H86.4C86.4,82.1,87.8,86.3,90.2,88.5L90.2,88.5z
	 M107.8,59.1c-1.8-2-4.9-3.1-8.7-3.1c-2.5,0-4.5,0.4-6.1,1.3c-1.6,0.8-2.9,1.9-3.9,3.1c-1,1.2-1.7,2.6-2.1,4
	c-0.4,1.4-0.6,2.6-0.7,3.7h25.1C111,64,109.7,61.1,107.8,59.1L107.8,59.1z"/>
<path class="st0" d="M83.2,30.8h31.4v7.6H83.2C83.2,38.5,83.2,30.8,83.2,30.8z"/>
</svg>
