<?xml version="1.0" encoding="utf-8"?>
<!-- Generator: Adobe Illustrator 23.0.3, SVG Export Plug-In . SVG Version: 6.00 Build 0)  -->
<svg version="1.1" id="レイヤー_1" xmlns="http://www.w3.org/2000/svg" xmlns:xlink="http://www.w3.org/1999/xlink" x="0px"
	 y="0px" viewBox="0 0 128 128" style="enable-background:new 0 0 128 128;" xml:space="preserve">
<style type="text/css">
	.st0{fill:#2E2E2E;}
</style>
<title>github</title>
<path class="st0" d="M64,3.5C29.7,3.5,1.9,31.2,1.9,65.5c0,27.4,17.8,50.7,42.5,58.9c3.1,0.6,4.2-1.3,4.2-3c0-1.5-0.1-6.4-0.1-11.6
	c-17.3,3.8-20.9-7.3-20.9-7.3c-2.8-7.2-6.9-9.1-6.9-9.1c-5.6-3.9,0.4-3.8,0.4-3.8c6.2,0.4,9.5,6.4,9.5,6.4
	c5.5,9.5,14.5,6.7,18.1,5.2c0.6-4,2.2-6.8,3.9-8.3c-13.8-1.6-28.3-6.9-28.3-30.7c0-6.8,2.4-12.3,6.4-16.7c-0.6-1.6-2.8-7.9,0.6-16.4
	c0,0,5.2-1.7,17.1,6.4c5-1.4,10.3-2.1,15.5-2.1c5.3,0,10.6,0.7,15.5,2.1c11.8-8,17.1-6.4,17.1-6.4c3.4,8.6,1.3,14.9,0.6,16.4
	c4,4.3,6.4,9.9,6.4,16.7c0,23.8-14.5,29.1-28.3,30.6c2.2,1.9,4.2,5.7,4.2,11.5c0,8.3-0.1,15-0.1,17c0,1.7,1.1,3.6,4.3,3
	c24.7-8.2,42.4-31.5,42.4-58.9C126.1,31.2,98.3,3.5,64,3.5z"/>
</svg>
