<?xml version="1.0" encoding="utf-8"?>
<!-- Generator: Adobe Illustrator 23.0.3, SVG Export Plug-In . SVG Version: 6.00 Build 0)  -->
<svg version="1.1" id="レイヤー_1" xmlns="http://www.w3.org/2000/svg" xmlns:xlink="http://www.w3.org/1999/xlink" x="0px"
	 y="0px" viewBox="0 0 128 128" style="enable-background:new 0 0 128 128;" xml:space="preserve">
<style type="text/css">
	.st0{fill:#2E2E2E;}
</style>
<g>
	<path class="st0" d="M128,22.3L128,22.3L128,22.3L98.3,34.1l-0.4,0.2v0l0,0l0.1,0.2l0,0l-9.5,2.2c-0.5,0.1-0.9,0.4-1.2,0.9
		c-0.3,0.5-0.3,1-0.1,1.5l0.1,0.2l0,0.1L67,33.6c-0.9-0.3-1.8-0.1-2.6,0.3l-6.8,3.7l-18.5,2.5l-2.4,0.3c0-0.3-0.1-0.6-0.2-0.8
		c-0.3-0.5-0.7-0.8-1.2-0.9l-2-0.4l-7.3-1.5l0,0L6.3,30.3L0,28.1v0l0,0v44.5l16.3,0.5l0.1-0.3l7,0.6h0.2c0.3,0,0.7-0.1,1-0.3
		l2.6,1.3l0,0l-0.9,1.6c-0.8,1.4-0.3,3.2,1.2,4l2.1,1.1c1.1,0.6,2.5,0.4,3.4-0.5c0,0,0,0,0,0c0.1-0.1,0.1-0.1,0.2-0.2
		c0.1-0.1,0.2-0.1,0.2-0.2c-0.6,1.4-0.1,3.1,1.3,3.8l2.1,1.2c1.1,0.6,2.5,0.4,3.4-0.5c0,0,0,0,0,0c0.1-0.1,0.2-0.2,0.2-0.2
		c0.1-0.1,0.2-0.2,0.2-0.3c-0.5,1.3,0,2.9,1.3,3.6l2.1,1.1c0.9,0.5,2,0.4,2.9-0.1c0.2-0.1,0.4-0.3,0.6-0.4c-0.1,1.1,0.5,2.2,1.5,2.8
		l2.1,1.1c1.4,0.8,3.2,0.2,4-1.2l0.9-1.7l12.4,6.4c0.9,0.5,1.9,0.7,2.9,0.7c1.7,0,3.4-0.7,4.7-2l14.2-15.5l7.3-7.9l0.4,1.2
		c0.3,0.7,1,1.2,1.7,1.2c0.2,0,0.3,0,0.5-0.1l10.1-2.9l2.3,6.8l0.1,0.2l0,0l0,0l15.3-5.7V35.7L128,22.3z M77.9,83.8
		c-0.1-0.1-0.2-0.2-0.4-0.3l-11.7-7.4c-0.2-0.2-0.6-0.1-0.8,0.1l-2,2.1c-0.3,0.3-0.2,0.7,0.1,0.9l10.2,6.4l1.8,1.1l-3.4,3.7
		c-0.2,0.2-0.4,0.2-0.6,0.1l-12.1-6.2l-0.2-0.1l0.3-0.5c0.3-0.5,0.4-1.1,0.5-1.6c0.1-1.6-0.7-3.2-2.2-4c-0.4-0.2-0.8-0.3-1.2-0.4
		c-1.1-0.2-2.1,0-3,0.6c-0.1,0-0.2,0.1-0.2,0.1l0.8-1.5c1.1-2,0.3-4.5-1.7-5.6c-0.6-0.4-1.3-0.5-2-0.5c-1.1,0-2.2,0.5-3,1.3
		c-0.2,0.2-0.4,0.4-0.5,0.6c0.8-1.9,0-4.1-1.8-5.2c-1.6-0.8-3.5-0.5-4.7,0.6c0,0-0.1,0.1-0.1,0.1c-0.1,0.1-0.2,0.2-0.3,0.3
		c-0.1,0.1-0.2,0.2-0.2,0.2l0.2-0.4c1.1-2,0.3-4.5-1.7-5.6c-2-1.1-4.5-0.4-5.6,1.6l-2.5,4.7l-3-1.5l7.8-21.5h2.2l8-1.1l4.5-0.6
		L46,51.1c-1.1,2.3-0.1,5.1,2.2,6.1c0.6,0.3,1.2,0.4,1.8,0.4c1.4,0,2.8-0.7,3.7-1.9l4-5.9l8.6-1.6l11.2,6.5l4.8,2.8l11.1,6.4
		l0.9,1.8l-4.3,4.7l-12-7.6c-0.2-0.2-0.6-0.1-0.8,0.1l-1.9,2c-0.3,0.3-0.2,0.7,0.1,0.9l10.2,6.4l1.7,1.1l-3.1,3.5l-12.1-7.6
		c-0.2-0.2-0.6-0.1-0.8,0.1l-2.1,2.2c-0.3,0.3-0.2,0.7,0.1,0.9l10.2,6.4l1.7,1.1l-2.7,3L77.9,83.8z M32.4,41.9l-10,27.8l-4.5-0.4
		l-0.5-0.1l0,0l7.6-28.7l1.3,0.2l5.4,1L32.4,41.9z M109.1,67.1l-8.2,2.3L91.3,40l-0.1-0.2l7.9-1.9l9.5,27.7L109.1,67.1z"/>
</g>
</svg>
