<?xml version="1.0" encoding="utf-8"?>
<!-- Generator: Adobe Illustrator 23.0.3, SVG Export Plug-In . SVG Version: 6.00 Build 0)  -->
<svg version="1.1" id="レイヤー_1" xmlns="http://www.w3.org/2000/svg" xmlns:xlink="http://www.w3.org/1999/xlink" x="0px"
	 y="0px" viewBox="0 0 128 128" style="enable-background:new 0 0 128 128;" xml:space="preserve">
<style type="text/css">
	.st0{fill:#2E2E2E;}
</style>
<title>behance</title>
<title>instagram</title>
<path class="st0" d="M64,13c16.6,0,18.6,0.1,25.1,0.4c6.1,0.3,9.4,1.3,11.6,2.1c2.9,1.1,5,2.5,7.1,4.6c2.2,2.2,3.5,4.3,4.7,7.2
	c0.9,2.2,1.9,5.5,2.1,11.6c0.3,6.6,0.4,8.5,0.4,25.1s-0.1,18.6-0.4,25.1c-0.3,6.1-1.3,9.4-2.1,11.6c-1.1,2.9-2.5,5-4.6,7.1
	c-2.2,2.2-4.3,3.5-7.1,4.7c-2.2,0.9-5.5,1.9-11.6,2.1c-6.6,0.3-8.5,0.4-25.1,0.4s-18.6-0.1-25.1-0.4c-6.1-0.3-9.4-1.3-11.6-2.1
	c-2.9-1.1-5-2.5-7.2-4.6c-2.2-2.2-3.5-4.3-4.7-7.1c-0.9-2.2-1.9-5.5-2.1-11.6C13.1,82.6,13,80.6,13,64s0.1-18.6,0.4-25.1
	c0.3-6.1,1.3-9.4,2.1-11.6c1.1-2.9,2.5-5,4.6-7.2c2.2-2.2,4.3-3.5,7.2-4.7c2.2-0.9,5.5-1.9,11.6-2.1C45.4,13,47.4,13,64,13L64,13z
	 M64,1.8c-16.9,0-19,0.1-25.7,0.4C31.8,2.4,27.2,3.5,23.3,5c-4.1,1.6-7.6,3.7-11,7.2c-3.5,3.5-5.6,6.9-7.2,11
	c-1.5,4-2.6,8.5-2.9,15.1C1.8,45,1.8,47.1,1.8,64s0.1,19,0.4,25.7c0.3,6.6,1.4,11.2,2.9,15.1c1.6,4.1,3.7,7.6,7.2,11
	c3.5,3.5,6.9,5.6,11,7.2c4,1.5,8.5,2.6,15.1,2.9c6.6,0.3,8.8,0.4,25.7,0.4s19-0.1,25.7-0.4c6.6-0.3,11.2-1.4,15.1-2.9
	c4.1-1.6,7.6-3.7,11-7.2c3.5-3.5,5.6-6.9,7.2-11c1.5-4,2.6-8.5,2.9-15.1c0.3-6.6,0.4-8.8,0.4-25.7s-0.1-19-0.4-25.7
	c-0.3-6.6-1.4-11.2-2.9-15.1c-1.5-4.1-3.6-7.6-7.1-11.1c-3.5-3.5-6.9-5.6-11-7.2c-4-1.5-8.5-2.6-15.1-2.9C83.1,1.8,80.9,1.7,64,1.8
	L64,1.8L64,1.8z"/>
<path class="st0" d="M64,32c-17.7,0-32,14.3-32,32s14.3,32,32,32s32-14.3,32-32C96,46.4,81.7,32,64,32z M64,84.8
	c-11.5,0-20.7-9.3-20.7-20.7S52.6,43.3,64,43.3S84.8,52.6,84.8,64S75.5,84.8,64,84.8z"/>
<path class="st0" d="M104.7,30.8c0,4.1-3.3,7.5-7.5,7.5c-4.1,0-7.5-3.3-7.5-7.5s3.3-7.5,7.5-7.5C101.4,23.3,104.7,26.6,104.7,30.8z"
	/>
</svg>
