<?xml version="1.0" encoding="utf-8"?>
<!-- Generator: Adobe Illustrator 23.0.3, SVG Export Plug-In . SVG Version: 6.00 Build 0)  -->
<svg version="1.1" id="レイヤー_1" xmlns="http://www.w3.org/2000/svg" xmlns:xlink="http://www.w3.org/1999/xlink" x="0px"
	 y="0px" viewBox="0 0 128 128" style="enable-background:new 0 0 128 128;" xml:space="preserve">
<style type="text/css">
	.st0{fill:#2E2E2E;}
</style>
<g>
	<path class="st0" d="M115.6,30H12.4c-6.1,0-11,4.9-11,11v45.1c0,6.1,4.9,11,11,11h103.2c6.1,0,11-4.9,11-11V41
		C126.6,34.9,121.7,30,115.6,30z M13.9,64.4h18.5c0.1,0,0.2,0.1,0.2,0.2v6.6c0,0.1-0.1,0.2-0.2,0.2H13.9c-0.1,0-0.2-0.1-0.2-0.2
		v-6.6C13.8,64.5,13.8,64.4,13.9,64.4z M29.5,76.1c0-0.1,0.1-0.2,0.2-0.2h6.6c0.1,0,0.2,0.1,0.2,0.2v6.6c0,0.1-0.1,0.2-0.2,0.2h-6.6
		c-0.1,0-0.2-0.1-0.2-0.2C29.5,82.7,29.5,76.1,29.5,76.1z M13.9,75.9h11.7c0.1,0,0.2,0.1,0.2,0.2v6.6c0,0.1-0.1,0.2-0.2,0.2H13.9
		c-0.1,0-0.2-0.1-0.2-0.2v-6.6C13.8,76,13.8,75.9,13.9,75.9z M32.4,47.9c0,0.1-0.1,0.2-0.2,0.2h-6.6c-0.1,0-0.2-0.1-0.2-0.2v-3.5
		c0-0.1,0.1-0.2,0.2-0.2h6.6c0.1,0,0.2,0.1,0.2,0.2V47.9z M44.1,47.9c0,0.1-0.1,0.2-0.2,0.2h-6.6c-0.1,0-0.2-0.1-0.2-0.2v-3.5
		c0-0.1,0.1-0.2,0.2-0.2h6.6c0.1,0,0.2,0.1,0.2,0.2V47.9z M55.8,47.9c0,0.1-0.1,0.2-0.2,0.2H49c-0.1,0-0.2-0.1-0.2-0.2v-3.5
		c0-0.1,0.1-0.2,0.2-0.2h6.6c0.1,0,0.2,0.1,0.2,0.2V47.9z M67.4,47.9c0,0.1-0.1,0.2-0.2,0.2h-6.6c-0.1,0-0.2-0.1-0.2-0.2v-3.5
		c0-0.1,0.1-0.2,0.2-0.2h6.6c0.1,0,0.2,0.1,0.2,0.2V47.9z M79.2,47.9c0,0.1-0.1,0.2-0.2,0.2h-6.6c-0.1,0-0.2-0.1-0.2-0.2v-3.5
		c0-0.1,0.1-0.2,0.2-0.2H79c0.1,0,0.2,0.1,0.2,0.2V47.9z M90.8,47.9c0,0.1-0.1,0.2-0.2,0.2h-6.6C84,48,84,47.9,84,47.9v-3.5
		c0-0.1,0.1-0.2,0.2-0.2h6.6c0.1,0,0.2,0.1,0.2,0.2L90.8,47.9L90.8,47.9z M95.6,64.6c0-0.1,0.1-0.2,0.2-0.2h6.6
		c0.1,0,0.2,0.1,0.2,0.2v6.6c0,0.1-0.1,0.2-0.2,0.2h-6.6c-0.1,0-0.2-0.1-0.2-0.2V64.6z M102.5,47.9c0,0.1-0.1,0.2-0.2,0.2h-6.6
		c-0.1,0-0.2-0.1-0.2-0.2v-3.5c0-0.1,0.1-0.2,0.2-0.2h6.6c0.1,0,0.2,0.1,0.2,0.2V47.9z M96.6,53v6.6c0,0.1-0.1,0.2-0.2,0.2h-6.6
		c-0.1,0-0.2-0.1-0.2-0.2V53c0-0.1,0.1-0.2,0.2-0.2h6.6C96.6,52.9,96.6,53,96.6,53z M87.5,76.1c0-0.1,0.1-0.2,0.2-0.2h6.6
		c0.1,0,0.2,0.1,0.2,0.2v6.6c0,0.1-0.1,0.2-0.2,0.2h-6.6c-0.1,0-0.2-0.1-0.2-0.2V76.1z M84,64.6c0-0.1,0.1-0.2,0.2-0.2h6.6
		c0.1,0,0.2,0.1,0.2,0.2v6.6c0,0.1-0.1,0.2-0.2,0.2h-6.6c-0.1,0-0.2-0.1-0.2-0.2V64.6z M84.9,53v6.6c0,0.1-0.1,0.2-0.2,0.2h-6.6
		c-0.1,0-0.2-0.1-0.2-0.2V53c0-0.1,0.1-0.2,0.2-0.2h6.6C84.8,52.9,84.9,53,84.9,53z M51,76.1c0-0.1,0.1-0.2,0.2-0.2h32.1
		c0.1,0,0.2,0.1,0.2,0.2v6.6c0,0.1-0.1,0.2-0.2,0.2H51.2c-0.1,0-0.2-0.1-0.2-0.2V76.1z M79.2,71.2c0,0.1-0.1,0.2-0.2,0.2h-6.6
		c-0.1,0-0.2-0.1-0.2-0.2v-6.6c0-0.1,0.1-0.2,0.2-0.2H79c0.1,0,0.2,0.1,0.2,0.2V71.2z M67.4,64.6v6.6c0,0.1-0.1,0.2-0.2,0.2h-6.6
		c-0.1,0-0.2-0.1-0.2-0.2v-6.6c0-0.1,0.1-0.2,0.2-0.2h6.6C67.4,64.4,67.4,64.5,67.4,64.6z M48.9,64.6c0-0.1,0.1-0.2,0.2-0.2h6.6
		c0.1,0,0.2,0.1,0.2,0.2v6.6c0,0.1-0.1,0.2-0.2,0.2H49c-0.1,0-0.2-0.1-0.2-0.2V64.6z M73.1,53v6.6c0,0.1-0.1,0.2-0.2,0.2h-6.6
		c-0.1,0-0.2-0.1-0.2-0.2V53c0-0.1,0.1-0.2,0.2-0.2h6.6C73,52.9,73.1,53,73.1,53z M61.3,53v6.6c0,0.1-0.1,0.2-0.2,0.2h-6.6
		c-0.1,0-0.2-0.1-0.2-0.2V53c0-0.1,0.1-0.2,0.2-0.2h6.6C61.2,52.9,61.3,53,61.3,53z M49.5,53v6.6c0,0.1-0.1,0.2-0.2,0.2h-6.6
		c-0.1,0-0.2-0.1-0.2-0.2V53c0-0.1,0.1-0.2,0.2-0.2h6.6C49.4,52.9,49.5,53,49.5,53z M39.7,76.1c0-0.1,0.1-0.2,0.2-0.2h6.6
		c0.1,0,0.2,0.1,0.2,0.2v6.6c0,0.1-0.1,0.2-0.2,0.2h-6.6c-0.1,0-0.2-0.1-0.2-0.2V76.1z M37.2,64.6c0-0.1,0.1-0.2,0.2-0.2h6.6
		c0.1,0,0.2,0.1,0.2,0.2v6.6c0,0.1-0.1,0.2-0.2,0.2h-6.6c-0.1,0-0.2-0.1-0.2-0.2V64.6z M37.7,53v6.6c0,0.1-0.1,0.2-0.2,0.2h-6.6
		c-0.1,0-0.2-0.1-0.2-0.2V53c0-0.1,0.1-0.2,0.2-0.2h6.6C37.6,52.9,37.7,53,37.7,53z M103.6,76.1v2.5c0,0.1-0.1,0.2-0.2,0.2h-5.1
		c-0.1,0-0.2-0.1-0.2-0.2v-2.5c0-0.1,0.1-0.2,0.2-0.2h5.1C103.5,75.9,103.6,76,103.6,76.1z M98.1,80.2c0-0.1,0.1-0.2,0.2-0.2h5.1
		c0.1,0,0.2,0.1,0.2,0.2v2.5c0,0.1-0.1,0.2-0.2,0.2h-5.1c-0.1,0-0.2-0.1-0.2-0.2V80.2z M107.3,47.9v-3.5c0-0.1,0.1-0.2,0.2-0.2h6.6
		c0.1,0,0.2,0.1,0.2,0.2v3.5c0,0.1-0.1,0.2-0.2,0.2h-6.6C107.4,48,107.3,47.9,107.3,47.9z M114.2,53v6.6c0,0.1-0.1,0.2-0.2,0.2
		h-11.2c-0.1,0-0.2-0.1-0.2-0.2V53c0-0.1,0.1-0.2,0.2-0.2h11.2C114.2,52.9,114.2,53,114.2,53z M107.3,76.1c0-0.1,0.1-0.2,0.2-0.2
		h6.6c0.1,0,0.2,0.1,0.2,0.2v6.6c0,0.1-0.1,0.2-0.2,0.2h-6.6c-0.1,0-0.2-0.1-0.2-0.2V76.1z M107.5,71.4c-0.1,0-0.2-0.1-0.2-0.2v-6.6
		c0-0.1,0.1-0.2,0.2-0.2h6.6c0.1,0,0.2,0.1,0.2,0.2v6.6c0,0.1-0.1,0.2-0.2,0.2H107.5z M20.7,47.9c0,0.1-0.1,0.2-0.2,0.2h-6.6
		c-0.1,0-0.2-0.1-0.2-0.2v-3.5c0-0.1,0.1-0.2,0.2-0.2h6.6c0.1,0,0.2,0.1,0.2,0.2V47.9z M13.9,52.9h11.2c0.1,0,0.2,0.1,0.2,0.2v6.6
		c0,0.1-0.1,0.2-0.2,0.2H13.9c-0.1,0-0.2-0.1-0.2-0.2V53C13.8,53,13.8,52.9,13.9,52.9z"/>
</g>
</svg>
