<?xml version="1.0" encoding="utf-8"?>
<!-- Generator: Adobe Illustrator 23.0.3, SVG Export Plug-In . SVG Version: 6.00 Build 0)  -->
<svg version="1.1" id="レイヤー_1" xmlns="http://www.w3.org/2000/svg" xmlns:xlink="http://www.w3.org/1999/xlink" x="0px"
	 y="0px" viewBox="0 0 128 128" style="enable-background:new 0 0 128 128;" xml:space="preserve">
<style type="text/css">
	.st0{fill:#2E2E2E;}
</style>
<g>
	<path class="st0" d="M114.1,3H13.9C6.6,3,0.6,8.9,0.6,16.3v61.5h0v11.7c0,7.4,6,13.3,13.3,13.3h41v11.7H43.4V125v0v0h41.1v-10.5
		H73.1v-11.7h41c7.4,0,13.3-6,13.3-13.3V77.9h0V16.3C127.4,8.9,121.4,3,114.1,3z M64,95c-2.1,0-3.8-1.7-3.8-3.8
		c0-2.1,1.7-3.8,3.8-3.8c2.1,0,3.8,1.7,3.8,3.8C67.8,93.4,66.1,95,64,95z M115,32.7L115,32.7l0,46.4v0.1H13V32.7h0V16.3
		c0-0.5,0.4-0.9,0.9-0.9h25.8l7.5,0l-5.5,17.8c-0.4,0.9,0,2,0.8,2.5c0.9,0.5,2.1,0.2,2.7-0.7l8.3-19.5h17.4l7.5,0
		c-0.4,0.8-13.7,35.4-13.7,35.4c-0.3,0.9,0,1.9,0.8,2.4c0.9,0.6,2.1,0.3,2.7-0.7c0,0,17-36.7,17-36.9c0-0.1,0-0.2,0-0.2h28.8
		c0.5,0,0.9,0.4,0.9,0.9L115,32.7L115,32.7z"/>
</g>
</svg>
