<?xml version="1.0" encoding="utf-8"?>
<!-- Generator: Adobe Illustrator 23.0.3, SVG Export Plug-In . SVG Version: 6.00 Build 0)  -->
<svg version="1.1" id="レイヤー_1" xmlns="http://www.w3.org/2000/svg" xmlns:xlink="http://www.w3.org/1999/xlink" x="0px"
	 y="0px" viewBox="0 0 128 128" style="enable-background:new 0 0 128 128;" xml:space="preserve">
<style type="text/css">
	.st0{fill:#FFFFFF;}
</style>
<g>
	<polygon class="st0" points="52.1,69.9 64,74.7 75.9,69.9 86.9,65.3 105.6,57.7 105.6,51.1 105.6,48.6 105.6,48.6 105.6,48.6 
		75.9,60.8 64.8,65.3 64,65.7 63.2,65.3 52.1,60.8 30.6,52 22.4,48.6 22.4,48.6 22.4,48.6 22.4,57.7 41.1,65.3 	"/>
	<path class="st0" d="M15.9,120.2h96.2c8.8,0,15.9-7.1,15.9-15.9V23.7c0-8.8-7.1-15.9-15.9-15.9H15.9C7.1,7.8,0,15,0,23.7v80.5
		C0,113.1,7.1,120.2,15.9,120.2z M14,23.7c0-1.1,0.9-2,1.9-2h96.2c1.1,0,1.9,0.9,1.9,2v80.5c0,1.1-0.9,1.9-1.9,1.9H15.9
		c-1.1,0-1.9-0.9-1.9-1.9V23.7z"/>
</g>
</svg>
