<?xml version="1.0" encoding="utf-8"?>
<!-- Generator: Adobe Illustrator 23.0.3, SVG Export Plug-In . SVG Version: 6.00 Build 0)  -->
<svg version="1.1" id="レイヤー_1" xmlns="http://www.w3.org/2000/svg" xmlns:xlink="http://www.w3.org/1999/xlink" x="0px"
	 y="0px" viewBox="0 0 128 128" style="enable-background:new 0 0 128 128;" xml:space="preserve">
<style type="text/css">
	.st0{fill-rule:evenodd;clip-rule:evenodd;fill:#242424;}
	.st1{clip-path:url(#SVGID_4_);}
	.st2{fill:#242424;}
	.st3{clip-path:url(#SVGID_6_);fill:#242424;}
</style>
<g id="p_1_">
	<g>
		<path id="SVGID_1_" class="st0" d="M110.5,21.6C101,13,87.3,8.3,71.5,8.3C30.5,8.3,2.6,40,2.6,40l7.9,12.4c0,0,4.4,0.3,1.9-7
			c2.2-3.8,6-8.9,13.7-14.6V114c-3.2,1-7.6,2.5-4.8,5.7h22.5c2.9-2.9-1.6-4.8-4.4-5.7V94.3c0,0,15.6,6,32.1,6
			c14.6,0,27.9-4.4,37.8-12.4s16.2-19.7,16.2-33C125.7,41.9,120,29.9,110.5,21.6 M70.2,92.4c-12.7,0-23.5-2.5-30.8-6V68.6V24.2
			c7.9-5.7,20.6-8.9,30.8-8.9c12.4,0,22.2,4.8,28.9,11.7c6.7,7.3,10.2,16.8,10.2,27.9c0,10.8-3.8,19.7-10.8,26.7
			C91.5,88.3,81.6,92.4,70.2,92.4z"/>
	</g>
	<g>
		<defs>
			<path id="SVGID_2_" d="M110.5,21.6C101,13,87.3,8.3,71.5,8.3C30.5,8.3,2.6,40,2.6,40l7.9,12.4c0,0,4.4,0.3,1.9-7
				c2.2-3.8,6-8.9,13.7-14.6V114c-3.2,1-7.6,2.5-4.8,5.7h22.5c2.9-2.9-1.6-4.8-4.4-5.7V94.3c0,0,15.6,6,32.1,6
				c14.6,0,27.9-4.4,37.8-12.4s16.2-19.7,16.2-33C125.7,41.9,120,29.9,110.5,21.6 M70.2,92.4c-12.7,0-23.5-2.5-30.8-6V68.6V24.2
				c7.9-5.7,20.6-8.9,30.8-8.9c12.4,0,22.2,4.8,28.9,11.7c6.7,7.3,10.2,16.8,10.2,27.9c0,10.8-3.8,19.7-10.8,26.7
				C91.5,88.3,81.6,92.4,70.2,92.4z"/>
		</defs>
		<clipPath id="SVGID_4_">
			<use xlink:href="#SVGID_2_"  style="overflow:visible;"/>
		</clipPath>
		<g class="st1">
			<g>
				<rect id="SVGID_3_" x="-20.3" y="-24.4" class="st2" width="173" height="173"/>
			</g>
			<g>
				<defs>
					<rect id="SVGID_5_" x="-20.3" y="-24.4" width="173" height="173"/>
				</defs>
				<clipPath id="SVGID_6_">
					<use xlink:href="#SVGID_5_"  style="overflow:visible;"/>
				</clipPath>
				<rect x="1" y="6.7" class="st3" width="126.3" height="114.6"/>
			</g>
		</g>
	</g>
</g>
</svg>
