<?xml version="1.0" encoding="utf-8"?>
<!-- Generator: Adobe Illustrator 23.0.3, SVG Export Plug-In . SVG Version: 6.00 Build 0)  -->
<svg version="1.1" id="レイヤー_1" xmlns="http://www.w3.org/2000/svg" xmlns:xlink="http://www.w3.org/1999/xlink" x="0px"
	 y="0px" viewBox="0 0 128 128" style="enable-background:new 0 0 128 128;" xml:space="preserve">
<style type="text/css">
	.st0{fill:#2E2E2E;}
</style>
<g>
	<path class="st0" d="M125.4,131c-1-7.4-2.3-16.6-3.2-20c-0.1-0.4-0.2-0.8-0.3-1.1c-0.1-0.2-0.1-0.5-0.2-0.7
		c-0.2-0.4-0.3-0.8-0.4-1.1c-0.1-0.2-0.1-0.3-0.2-0.4c0-0.1-0.1-0.1-0.1-0.2c-0.1-0.1-0.1-0.2-0.2-0.3c-0.1-0.2-0.2-0.4-0.3-0.5
		c-0.1-0.1-0.1-0.2-0.2-0.2c-0.4-0.4-0.8-0.6-1.1-0.6c-0.3,0-0.4,0.1-0.4,0.1S97.5,95.4,91.8,93c-0.3-0.5-0.5-1-0.9-1.4v0
		c-0.3-0.4-0.7-0.9-1.1-1.3c-1.8-1.9-3.9-3.1-5.6-3.9c-1.4-0.7-2.3-1-2.3-1s-0.1-6.3-0.2-10.2c1.7-1.9,2.8-3.4,3.1-3.8l0.2-0.2
		l0.1-0.3c0.1-0.1,1.1-2.4,2-5.5c3.2-0.8,5.8-4.1,7.2-9.2c0.7-2.7,0.5-5.2-0.4-7.2c0-1.1-0.1-1.9-0.2-2.3c0,0,1.9-10.8,1.3-18.1
		C94.3,21.3,80.8,16,80.8,16s-0.6-1.5-1.9-3.4c-0.3-0.4-0.6-0.8-0.9-1.2c-0.3-0.3-0.6-0.7-0.9-1c-0.1-0.2-0.3-0.3-0.5-0.5
		c-0.1-0.1-0.2-0.2-0.3-0.2C74,7.2,70.6,5.1,65.8,5.1c-0.3,0-0.7,0-1.1,0c-2,0.1-3.9,0.4-5.7,0.8c-8.6,2-14.6,7.2-19.1,14.5
		c-5.4,8.8-6.1,19.3-6.1,19.3c0,0.9,2,4.2,2.9,5.6c-0.4,0.2-0.7,0.6-1,0.9c-2,2.4-1.5,6.3-1.2,7.8c0,0.2,0.1,0.4,0.1,0.7
		c0.5,2.9,1.5,8.1,6.5,9.9c1.2,3.5,1.9,5.8,1.9,5.8l0.2,0.5l0.3,0.5c0.4,0.5,1.7,2.2,3.6,4.2c-0.1,3.3-0.1,9.7-0.1,9.7s-1,0.3-2.3,1
		c-1.6,0.8-3.8,2.1-5.6,3.9c-0.4,0.4-0.8,0.8-1.1,1.3v0c-0.3,0.4-0.6,0.9-0.9,1.4c-5.8,2.4-26.9,13-26.9,13s-0.2-0.1-0.5-0.1
		c-0.3,0-0.6,0.1-1.1,0.6c-0.1,0.1-0.1,0.1-0.2,0.2c-0.1,0.1-0.2,0.3-0.3,0.5c-0.1,0.1-0.1,0.2-0.2,0.3c0,0.1-0.1,0.1-0.1,0.2
		c-0.1,0.1-0.1,0.3-0.2,0.4c-0.2,0.3-0.3,0.7-0.4,1.1c-0.1,0.2-0.1,0.4-0.2,0.7c-0.1,0.3-0.2,0.7-0.3,1.1c-0.9,3.4-2.2,12.6-3.2,20
		c-0.3,2.3,1.5,4.4,4,4.4h114.1C123.9,135.4,125.8,133.3,125.4,131z M46,69.5c0,0-0.9-3.1-2.5-7.6c-4.8-0.7-5.3-5.4-5.9-8.5
		c-0.4-2.2-0.3-4.1,0.4-5c0.3-0.4,0.7-0.7,1.1-0.7c1.2,0,2.6,4.5,3.1,6.3c0.1,0.4,0.2,0.7,0.2,0.8v-0.1c0,0.1,0,0.1,0,0.1l1-10.7
		l3.5-3.7l2.2-8c0,0,8.5-6.8,15.2-6.9h0.3c6.6,0,12.4,3.2,12.4,3.2s2.7,8.9,3,9.4c0.3,0.4,4.9,5.5,4.9,5.5l0.1,5.7l0,5.6
		c0,0,0-0.1,0-0.2v0.2c0,0,1.1-6,3.3-6.3c0.1,0,0.2,0,0.3,0c2,0,3.7,2.9,2.7,6.9c-0.4,1.4-0.9,2.8-1.5,3.9c-0.7,1.1-1.4,2.1-2.3,2.6
		c0,0-0.1,0-0.1,0.1c-0.3,0.2-0.6,0.3-1,0.4c-0.1,0-0.1,0-0.2,0c-0.1,0-0.3,0.1-0.5,0.1c-0.3,0-0.6,0-0.9-0.1c0,0,0,0,0,0
		c0,0,0,0,0,0c-0.7,3.3-1.9,6.2-2.3,7.1c0,0.1,0,0.1-0.1,0.2c0,0,0,0.1,0,0.1s0,0,0,0c0,0,0,0,0,0c-0.5,0.8-9.6,13-18.3,13h-0.3
		c-5.8-0.2-12.5-7-15.7-10.7C46.7,70.5,46,69.5,46,69.5z M76.8,85.7v1.2l-12.4,5.7l-12.3-5.7v-6.2c3.4,2.8,7.5,5.2,11.4,5.4
		c4.2,0,7.9-1.8,11.2-4.1c0.2-0.1,0.3-0.2,0.5-0.4c0.1-0.1,0.1-0.1,0.2-0.2c0.4-0.3,0.9-0.6,1.3-1C76.7,83.1,76.8,85.6,76.8,85.7z
		 M54.5,106.7l-14.2-15c2.1-2.2,5-3.6,6.4-4.2L60.4,95l3.6,2l-9.2,9.3L54.5,106.7z M69.9,133.5H59v-13.2l3.2-7.5h4.5l3.2,7.5V133.5z
		 M66.7,110.8h-4.5l-3.2-7.5h7.9l3,0L66.7,110.8z M74.9,106.1l-0.5,0.6L66.8,99l-2-2l17.3-9.5c1.4,0.5,4.3,1.9,6.4,4.2L74.9,106.1z"
		/>
</g>
</svg>
