<?xml version="1.0" encoding="utf-8"?>
<!-- Generator: Adobe Illustrator 23.0.3, SVG Export Plug-In . SVG Version: 6.00 Build 0)  -->
<svg version="1.1" id="レイヤー_1" xmlns="http://www.w3.org/2000/svg" xmlns:xlink="http://www.w3.org/1999/xlink" x="0px"
	 y="0px" viewBox="0 0 128 128" style="enable-background:new 0 0 128 128;" xml:space="preserve">
<style type="text/css">
	.st0{fill:#222323;}
</style>
<path class="st0" d="M104.8,102.6l16.5,16.5l-5.6,5.6l-16.8-16.8c-10,7.2-21.8,11.2-34.3,11.2c-34.6,0-58.6-27.4-58.6-57.6
	C5.8,26.9,33.2,3.3,63.4,3.3c34.6,0,58.6,27.4,58.6,57.6C121.9,75.5,116.6,90.8,104.8,102.6z M113.5,61.2
	c0-27.4-21.5-49.8-50.1-49.8c-25.2,0-49.2,19.9-49.2,50.1c0,25.2,19.9,49.5,50.1,49.5C89.5,111,113.5,91.1,113.5,61.2z"/>
</svg>
