<?xml version="1.0" encoding="utf-8"?>
<!-- Generator: Adobe Illustrator 23.0.3, SVG Export Plug-In . SVG Version: 6.00 Build 0)  -->
<svg version="1.1" id="レイヤー_1" xmlns="http://www.w3.org/2000/svg" xmlns:xlink="http://www.w3.org/1999/xlink" x="0px"
	 y="0px" viewBox="0 0 128 128" style="enable-background:new 0 0 128 128;" xml:space="preserve">
<style type="text/css">
	.st0{fill:#2E2E2E;}
</style>
<path class="st0" d="M126.9,23.1c-4.6,2.1-9.6,3.4-14.8,4.1c5.3-3.2,9.4-8.3,11.4-14.3c-5,2.9-10.5,5.1-16.4,6.3
	c-4.7-5-11.4-8.1-18.9-8.1C74,11,62.4,22.5,62.4,36.8c0,2,0.2,4,0.7,5.9c-21.5-1.1-40.5-11.4-53.2-27c-2.2,3.8-3.5,8.3-3.5,13
	c0,8.9,4.5,16.9,11.5,21.5c-4.2-0.1-8.2-1.3-11.7-3.2c0,0.1,0,0.2,0,0.3c0,12.5,8.9,23,20.7,25.3c-2.2,0.6-4.4,0.9-6.8,0.9
	c-1.7,0-3.3-0.2-4.9-0.5C18.5,83.2,28,90.7,39.3,90.9c-8.8,6.9-20,11.1-32.1,11.1c-2.1,0-4.1-0.1-6.2-0.4
	c11.5,7.4,25,11.6,39.6,11.6c47.5,0,73.5-39.4,73.5-73.5c0-1.1,0-2.2-0.1-3.3C119.1,32.8,123.5,28.2,126.9,23.1L126.9,23.1z"/>
</svg>
