<?xml version="1.0" encoding="utf-8"?>
<!-- Generator: Adobe Illustrator 23.0.3, SVG Export Plug-In . SVG Version: 6.00 Build 0)  -->
<svg version="1.1" id="レイヤー_1" xmlns="http://www.w3.org/2000/svg" xmlns:xlink="http://www.w3.org/1999/xlink" x="0px"
	 y="0px" viewBox="0 0 128 128" style="enable-background:new 0 0 128 128;" xml:space="preserve">
<style type="text/css">
	.st0{fill:#2E2E2E;}
</style>
<path class="st0" d="M123.9,39.5c0,0-1.2-8.4-4.9-12.1c-4.7-4.9-9.9-4.9-12.3-5.2C89.7,21,64,21,64,21h0c0,0-25.7,0-42.8,1.2
	c-2.4,0.3-7.6,0.3-12.3,5.2C5.2,31.1,4,39.5,4,39.5s-1.2,9.9-1.2,19.8v9.3C2.8,78.5,4,88.4,4,88.4s1.2,8.4,4.9,12.1
	c4.7,4.9,10.8,4.7,13.5,5.2C32.2,106.7,64,107,64,107s25.7,0,42.8-1.3c2.4-0.3,7.6-0.3,12.3-5.2c3.7-3.7,4.9-12.1,4.9-12.1
	s1.2-9.9,1.2-19.8v-9.3C125.2,49.5,123.9,39.5,123.9,39.5L123.9,39.5z M51.3,79.9V45.5l33.1,17.3C84.4,62.7,51.3,79.9,51.3,79.9z"/>
</svg>
